<svg xmlns="http://www.w3.org/2000/svg" viewBox="0 0 256 256" width="256" height="256">
  <defs>
    <linearGradient id="bg-diy-advisor" x1="0%" y1="0%" x2="100%" y2="100%" gradientTransform="rotate(181 128 128)">
      <stop offset="0%" stop-color="#CC3399"/>
      <stop offset="100%" stop-color="#B02880"/>
    </linearGradient>
    <linearGradient id="shine-diy-advisor" x1="0%" y1="0%" x2="100%" y2="100%">
      <stop offset="0%" stop-color="white" stop-opacity="0.12"/>
      <stop offset="50%" stop-color="white" stop-opacity="0.03"/>
      <stop offset="100%" stop-color="black" stop-opacity="0.08"/>
    </linearGradient>
    <clipPath id="circle-diy-advisor">
      <circle cx="128" cy="128" r="128"/>
    </clipPath>
  </defs>

  <!-- Background circle -->
  <circle cx="128" cy="128" r="128" fill="url(#bg-diy-advisor)"/>

  <!-- Subtle pattern ring -->
  <circle cx="128" cy="128" r="120" fill="none" stroke="white" stroke-opacity="0.06" stroke-width="1"/>
  <circle cx="128" cy="128" r="110" fill="none" stroke="white" stroke-opacity="0.03" stroke-width="0.5"/>

  <!-- Icon silhouette -->
  <g clip-path="url(#circle-diy-advisor)" color="white">
    
    <path d="M155 80 Q175 80 180 100 L180 108 L170 108 L165 100 Q160 92 150 96 L96 150 Q88 158 96 166 Q104 174 112 166 L166 112 Q170 108 170 100" fill="currentColor" opacity="0.85"/>
    <circle cx="100" cy="162" r="18" fill="none" stroke="currentColor" opacity="0.6" stroke-width="3"/>
  
  </g>

  <!-- Gradient shine overlay -->
  <circle cx="128" cy="128" r="128" fill="url(#shine-diy-advisor)"/>

  <!-- Subtle border -->
  <circle cx="128" cy="128" r="126" fill="none" stroke="white" stroke-opacity="0.1" stroke-width="1.5"/>
</svg>